Coordinates
version=1
nRows=12
nColumns=46
inDegrees=yes

Units are S.I. units (second, meters, Newtons, ...)
Angles are in degrees.

endheader
time	pelvis_tilt	pelvis_list	pelvis_rotation	pelvis_tx	pelvis_ty	pelvis_tz	bb_angle	bb_tx	bb_ty	bb_tz	hip_flexion_r	hip_adduction_r	hip_rotation_r	knee_angle_r	knee_angle_r_beta	ankle_angle_r	subtalar_angle_r	mtp_angle_r	crank_angle_r	hip_flexion_l	hip_adduction_l	hip_rotation_l	knee_angle_l	knee_angle_l_beta	ankle_angle_l	subtalar_angle_l	mtp_angle_l	crank_angle_l	lumbar_extension	lumbar_bending	lumbar_rotation	arm_flex_r	arm_add_r	arm_rot_r	elbow_flex_r	pro_sup_r	wrist_flex_r	wrist_dev_r	arm_flex_l	arm_add_l	arm_rot_l	elbow_flex_l	pro_sup_l	wrist_flex_l	wrist_dev_l
      7.50500000	    -24.36624923	     -6.20572974	      2.50509880	      0.38256926	      1.21822387	     -0.23306684	      0.00000000	      0.50000000	      0.00000000	      0.25000000	     57.58939745	     -9.25185722	     -8.51969131	     88.32298628	      1.54152692	    -11.14885936	      0.89358889	      0.00000000	      0.00000000	     51.77018599	     -9.60396861	      1.37405745	     45.33448136	      0.79123596	      2.62441421	      4.25705664	      0.00000000	      0.00000000	    -58.51403084	      3.72154931	      2.57476329	     53.21743323	    -26.41906845	     26.67774287	     76.10105687	     48.27623698	      0.00000000	      0.00000000	     59.19635426	    -37.27997840	     42.80179223	     80.53633155	     51.04801068	      0.00000000	      0.00000000
      7.51000000	    -24.30200255	     -6.86627616	      2.45153477	      0.38274191	      1.21663052	     -0.23337989	      0.00000000	      0.50000000	      0.00000000	      0.25000000	     58.79593979	     -8.96287765	     -8.72175324	     90.28692428	      1.57580410	    -10.32313836	      0.85256100	      0.00000000	      0.00000000	     50.43886196	    -10.21525052	      1.40309512	     43.35253907	      0.75664455	      1.39707015	      4.72107635	      0.00000000	      0.00000000	    -58.29039661	      4.39917335	      3.11354876	     53.29789345	    -26.34978901	     26.83511943	     75.98904481	     48.27165512	      0.00000000	      0.00000000	     58.68129269	    -37.25359816	     42.80844665	     80.44845470	     51.03370206	      0.00000000	      0.00000000
      7.51500000	    -24.11519170	     -7.20045314	      2.33419888	      0.38297309	      1.21528156	     -0.23388906	      0.00000000	      0.50000000	      0.00000000	      0.25000000	     59.96900551	     -8.91732635	     -8.60154572	     92.26974556	      1.61041086	     -9.39569898	      1.32059841	      0.00000000	      0.00000000	     48.82509015	    -10.60047480	      1.12797728	     41.31272296	      0.72104304	      0.01636028	      4.65958852	      0.00000000	      0.00000000	    -58.16174351	      4.97574472	      2.47753585	     54.81001934	    -25.39792017	     28.97992027	     74.03763250	     48.26899481	      0.00000000	      0.00000000	     56.31286695	    -37.82144445	     40.13773291	     81.26619081	     50.92804767	      0.00000000	      0.00000000
      7.52000000	    -24.06813505	     -7.83158416	      2.20947678	      0.38289804	      1.21364996	     -0.23409604	      0.00000000	      0.50000000	      0.00000000	      0.25000000	     61.22898712	     -8.59307866	     -8.78095554	     94.11687638	      1.64264937	     -8.42819323	      1.24350089	      0.00000000	      0.00000000	     47.56185696	    -11.26546492	      1.05838500	     39.50336149	      0.68946372	     -1.22468494	      5.05040728	      0.00000000	      0.00000000	    -57.95543574	      5.57052189	      3.02897537	     54.86607846	    -25.37386504	     29.03131522	     73.96830592	     48.25892599	      0.00000000	      0.00000000	     55.89641275	    -37.82632320	     40.19228659	     81.18300994	     50.91570980	      0.00000000	      0.00000000
      7.52500000	    -23.97757645	     -8.34979395	      2.09958480	      0.38278668	      1.21211433	     -0.23422151	      0.00000000	      0.50000000	      0.00000000	      0.25000000	     62.46261293	     -8.34099536	     -8.87174149	     95.90201998	      1.67380601	     -7.48097555	      1.24367859	      0.00000000	      0.00000000	     46.26554925	    -11.86231639	      0.89470328	     37.79191468	      0.65959334	     -2.45320559	      5.36540263	      0.00000000	      0.00000000	    -57.79183561	      6.12071258	      3.48673303	     54.93447996	    -25.37015317	     29.09339434	     73.86736185	     48.24238662	      0.00000000	      0.00000000	     55.48124528	    -37.82100410	     40.19856636	     81.07012083	     50.89052804	      0.00000000	      0.00000000
      7.53000000	    -23.74824480	     -8.40812891	      1.83895164	      0.38319762	      1.21133465	     -0.23435169	      0.00000000	      0.50000000	      0.00000000	      0.25000000	     63.56323743	     -8.22667958	     -8.45425677	     97.59956220	      1.70343371	     -6.26753184	      1.82642276	      0.00000000	      0.00000000	     44.49483716	    -12.17626500	      0.19888643	     35.80641895	      0.62493990	     -4.09277106	      5.36421410	      0.00000000	      0.00000000	    -57.78283293	      6.17040709	      3.54936009	     55.10696618	    -25.37357495	     29.51220389	     73.37944930	     48.20810129	      0.00000000	      0.00000000	     54.90849998	    -37.57097336	     39.79861997	     80.71378744	     50.78823020	      0.00000000	      0.00000000
      7.53500000	    -23.60709987	     -8.71922044	      1.63923577	      0.38343882	      1.21033508	     -0.23452535	      0.00000000	      0.50000000	      0.00000000	      0.25000000	     64.70781301	     -8.04566472	     -8.37521992	     99.15820436	      1.73063715	     -5.19580677	      2.03825376	      0.00000000	      0.00000000	     43.01643825	    -12.67073759	     -0.26975408	     34.08322215	      0.59486445	     -5.45723517	      5.72191838	      0.00000000	      0.00000000	    -57.71752633	      6.59943728	      3.72488792	     55.56292044	    -25.21830032	     30.00565683	     72.82491288	     48.16998527	      0.00000000	      0.00000000	     54.17147993	    -37.46739274	     39.13527167	     80.39684573	     50.67021760	      0.00000000	      0.00000000
      7.54000000	    -23.43292094	     -9.03001705	      1.51245193	      0.38378308	      1.20947568	     -0.23491489	      0.00000000	      0.50000000	      0.00000000	      0.25000000	     65.76427863	     -7.92380784	     -8.35660579	    100.59847513	      1.75577461	     -4.15258113	      2.23227654	      0.00000000	      0.00000000	     41.59444528	    -13.13480456	     -0.76024246	     32.54802485	      0.56807020	     -6.79201637	      6.16782300	      0.00000000	      0.00000000	    -57.72159372	      7.18090759	      3.26234314	     56.92108085	    -24.31375685	     31.62666376	     71.05454984	     48.10996413	      0.00000000	      0.00000000	     51.97728317	    -37.91907347	     36.59708733	     81.06351789	     50.57654837	      0.00000000	      0.00000000
      7.54500000	    -23.45370677	     -9.27038343	      1.28932204	      0.38408685	      1.20843503	     -0.23529908	      0.00000000	      0.50000000	      0.00000000	      0.25000000	     67.06900100	     -7.75273690	     -8.19790483	    101.92555748	      1.77893657	     -3.30099666	      2.42556512	      0.00000000	      0.00000000	     40.38697413	    -13.55815637	     -1.29390948	     31.11308314	      0.54302574	     -8.19751741	      6.54200943	      0.00000000	      0.00000000	    -57.56751689	      7.49575344	      3.52866881	     56.95778075	    -24.36051205	     31.70604402	     70.90841458	     48.09861978	      0.00000000	      0.00000000	     51.50518815	    -37.89305775	     36.50682498	     80.94132356	     50.54929954	      0.00000000	      0.00000000
      7.55000000	    -23.39936430	     -9.54781958	      1.12767415	      0.38426258	      1.20752694	     -0.23547660	      0.00000000	      0.50000000	      0.00000000	      0.25000000	     68.25153321	     -7.61532781	     -8.19636341	    103.15482932	      1.80039141	     -2.46129822	      2.51254244	      0.00000000	      0.00000000	     39.21179943	    -14.00955234	     -1.72801095	     29.85712292	      0.52110510	     -9.47628058	      7.07251885	      0.00000000	      0.00000000	    -57.50154006	      7.89078188	      3.82481672	     57.11684730	    -24.40994483	     31.72953670	     70.84086329	     48.08812426	      0.00000000	      0.00000000	     51.10926254	    -37.91011518	     36.38398139	     80.74477613	     50.50402834	      0.00000000	      0.00000000
      7.55500000	    -23.39048343	     -9.76973415	      0.88712481	      0.38469843	      1.20677789	     -0.23592064	      0.00000000	      0.50000000	      0.00000000	      0.25000000	     69.43593743	     -7.49456624	     -8.13621558	    104.23456621	      1.81923637	     -1.71380102	      2.61798324	      0.00000000	      0.00000000	     38.04968043	    -14.43648018	     -2.29341571	     28.68405399	      0.50063118	    -10.63066675	      7.52942225	      0.00000000	      0.00000000	    -57.45157679	      8.24814872	      4.15356068	     57.30962501	    -24.47686516	     31.76425802	     70.78793991	     48.07963518	      0.00000000	      0.00000000	     50.72864669	    -37.88221715	     36.25370926	     80.54378446	     50.45657602	      0.00000000	      0.00000000
      7.56000000	    -23.10311360	     -9.62656028	      0.46159426	      0.38564998	      1.20672178	     -0.23605594	      0.00000000	      0.50000000	      0.00000000	      0.25000000	     70.35799963	     -7.36355661	     -7.66139400	    105.22457279	      1.83651525	     -0.81327329	      3.12438146	      0.00000000	      0.00000000	     36.34684493	    -14.69054572	     -3.40589051	     27.39613212	      0.47815271	    -11.84766816	      8.01095082	      0.00000000	      0.00000000	    -57.62161699	      8.10113931	      4.15300178	     57.87296772	    -24.68664925	     33.00266176	     70.22186453	     48.15053929	      0.00000000	      0.00000000	     49.57858157	    -36.82974688	     34.00442942	     79.77107055	     50.12962190	      0.00000000	      0.00000000
